<svg width="40" height="40" viewBox="0 0 40 40" fill="none" xmlns="http://www.w3.org/2000/svg">
<path  d="M16.2718 20.6375L21.5534 25.7375C21.7346 25.9125 21.9547 26 22.2136 26C22.4725 26 22.6926 25.9125 22.8738 25.7375L23.7282 24.875C23.9094 24.7 24 24.4875 24 24.2375C24 23.9875 23.9094 23.775 23.7282 23.6L20 20L23.7282 16.4C23.9094 16.225 24 16.0125 24 15.7625C24 15.5125 23.9094 15.3 23.7282 15.125L22.8738 14.2625C22.6926 14.0875 22.4725 14 22.2136 14C21.9547 14 21.7346 14.0875 21.5534 14.2625L16.2718 19.3625C16.0906 19.5375 16 19.75 16 20C16 20.25 16.0906 20.4625 16.2718 20.6375Z" fill="#FFFFFF"/>
</svg>
