<svg width="40" height="40" viewBox="0 0 40 40" fill="none" xmlns="http://www.w3.org/2000/svg">
<path  d="M23.7282 20.6375L18.4466 25.7375C18.2654 25.9125 18.0453 26 17.7864 26C17.5275 26 17.3074 25.9125 17.1262 25.7375L16.2718 24.875C16.0906 24.7 16 24.4875 16 24.2375C16 23.9875 16.0906 23.775 16.2718 23.6L20 20L16.2718 16.4C16.0906 16.225 16 16.0125 16 15.7625C16 15.5125 16.0906 15.3 16.2718 15.125L17.1262 14.2625C17.3074 14.0875 17.5275 14 17.7864 14C18.0453 14 18.2654 14.0875 18.4466 14.2625L23.7282 19.3625C23.9094 19.5375 24 19.75 24 20C24 20.25 23.9094 20.4625 23.7282 20.6375Z" fill="#FFFFFF"/>
</svg>
