<svg width="1682" height="1429" viewBox="0 0 1682 1429" fill="#000000" xmlns="http://www.w3.org/2000/svg">
<path d="M729.531 105.101L729.532 105.103C816.7 190.129 893.109 287.493 945.989 397.489L945.99 397.491C985.454 478.639 1011.33 565.987 1026.01 654.903L1026.25 656.38L1026.94 655.053C1119.78 477.146 1280.6 335.623 1469.39 266.987C1479.98 332.252 1485.11 398.587 1479.78 464.563L1479.78 464.567C1469.71 602.299 1425.3 736.641 1356.28 856.049L1355.6 857.222L1356.88 856.771C1399.5 841.728 1443.39 830.052 1488.12 823.251L1488.13 823.25C1551.74 812.688 1616.56 814.396 1680.37 822.211C1679.32 825.186 1678.27 828.162 1677.22 831.14C1667 860.056 1656.77 889.021 1643.22 916.569L1643.22 916.573C1588.38 1030.21 1499.06 1125.45 1394.18 1194.8C1274.71 1273.5 1132.07 1320.93 988.219 1316.38L988.204 1316.38L988.189 1316.38C985.551 1316.46 982.812 1316.25 980.023 1316.01C979.68 1315.98 979.336 1315.94 978.992 1315.91C976.544 1315.7 974.065 1315.48 971.623 1315.43C966.053 1315.32 960.582 1316.1 955.881 1319.91C860.649 1383 747.906 1416.91 634.479 1425.57C495.382 1435.96 352.483 1409.37 229.352 1343.04L229.348 1343.04C180.608 1317.35 136.845 1283.43 95.809 1246.85L96.5272 1246.33C122.624 1227.32 148.741 1208.31 176.853 1192.43L176.855 1192.43C243.948 1154.2 317.955 1128.23 394.043 1115.26L395.422 1115.02L394.207 1114.33C275.497 1046.75 170.906 953.401 93.3139 840.845L93.312 840.842C54.42 785.231 24.7549 723.865 0.765288 660.544C198.595 625.505 408.626 667.781 578.082 775.366L579.356 776.175L578.817 774.766C535.727 662.095 513.426 541.182 517.217 420.448L517.217 420.446C521.185 276.314 558.912 135.252 610.323 1.19607L612.403 0.638797C652.465 34.3193 692.248 68.3923 729.531 105.101Z" stroke="#D9C287"/>
</svg>
