<svg width="762" height="313" viewBox="0 0 762 313" fill="none" xmlns="http://www.w3.org/2000/svg">
<path opacity="0.64" d="M436.376 312.013C331.092 306.02 226.934 278.583 134.024 228.508C85.0784 202.705 41.161 168.594 0 131.85L1.22296 130.959C27.2991 111.963 53.4234 92.9322 81.5464 77.039C148.342 38.9621 221.988 13.0459 297.715 0C478.611 12.4429 641.234 91.3351 761.354 212.446C744.833 213.273 728.262 213.439 711.674 212.914C708.677 213.001 705.559 212.723 702.422 212.444L702.42 212.444C694.389 211.728 686.236 211.002 679.666 216.346C606.376 264.925 522.724 296.217 436.376 312.013Z" fill="black"/>
</svg>
